<?xml version="1.0" encoding="UTF-8"?>
<svg id="a" data-name="Layer 3" xmlns="http://www.w3.org/2000/svg" width="814.22222" height="464.83333" viewBox="0 0 814.22222 464.83333">
  <path d="M92.8087,98.94827S124.7973,18.21513,198.67574,24.3082c73.87844,6.09307,120.33808,57.1225,70.83191,156.89648,0,0-13.52861,25.1339,11.89571,32.75024s119.10523-.76163,164.0416-36.5584c0,0,27.4188-25.89554,30.46534,20.5641s11.4245,177.46058-111.96011,227.72838-256.67045.76163-292.46722-79.20987,49.50617-132.52421,49.50617-132.52421c0,0,21.32573-8.37797-6.8547-33.51187,0,0,6.8547-19.80247,1.52327-35.03514-5.33143-15.23267-2.2849-16.75593-22.849-46.45964Z" fill="none" stroke="#5e0072" stroke-miterlimit="10" stroke-width="9"/>
  <path d="M114.13444,180.44305s-63.21557-3.04653-83.01804-22.849c0,0-19.04083-12.18612-11.42449-32.75022,4.03334-7.07039,35.46529-.85471,73.11681-25.89556" fill="none" stroke="#5e0072" stroke-miterlimit="10" stroke-width="9"/>
  <circle cx="169.40879" cy="96.23613" r="20.94492" fill="none" stroke="#5e0072" stroke-miterlimit="10" stroke-width="6"/>
  <g>
    <path d="M357.69099,117.28821c0,7.74339-6.29703,14.04356-14.03726,14.04356-6.61652,0-9.92477,0-16.54132.00002v9.45024c0,.91803-.74417,1.6617-1.6622,1.6617-.91858,0-1.66223-.74367-1.66223-1.6617v-35.87674c0-.91805.74365-1.66171,1.66223-1.66173,7.28143,0,10.92209,0,18.20352-.00002,7.74023,0,14.03726,6.30124,14.03726,14.04466ZM354.36708,117.28716c0-5.91049-4.806-10.71915-10.71335-10.71915-6.61655,0-9.92477.00002-16.54132.00002v21.43932c6.61655-.00002,9.9248-.00002,16.54132-.00002,5.90735,0,10.71335-4.80968,10.71335-10.72017Z" fill="#5e0072" stroke-width="0"/>
    <path d="M388.02855,117.94783v22.84468c0,.91908-.74368,1.66275-1.66223,1.66275s-1.66223-.74367-1.66223-1.66275v-1.70686c-2.06818,2.07974-4.92889,3.36961-8.08582,3.36961-6.29123,0-11.41025-5.11848-11.41025-11.41025v-13.10034c0-.91803.74368-1.6617,1.66223-1.6617.91803,0,1.66223.74367,1.66223,1.6617v13.10034c0,4.45886,3.62747,8.08582,8.08578,8.0858,4.45834,0,8.08582-3.62694,8.08582-8.08582v-13.09717c0-.91803.74368-1.66275,1.66223-1.66275s1.66223.74472,1.66223,1.66275Z" fill="#5e0072" stroke-width="0"/>
    <path d="M409.90477,117.94467c0,.91803-.74368,1.66275-1.66223,1.66275-4.45834,0-8.08582,3.62697-8.08582,8.08583v13.09715c0,.91803-.7442,1.6617-1.66223,1.6617-.91855,0-1.6622-.74367-1.6622-1.6617v-22.84573c0-.91803.74365-1.6617,1.6622-1.6617.91803,0,1.66223.74367,1.66223,1.6617v1.70792c2.06766-2.07974,4.92838-3.36961,8.08582-3.36961.91855,0,1.66223.74367,1.66223,1.6617Z" fill="#5e0072" stroke-width="0"/>
    <path d="M444.83198,129.36861c0,7.214-5.87006,13.08455-13.08511,13.08455-3.88113,0-7.36209-1.70792-9.76065-4.40002,0,6.30983,0,9.46474-.00003,15.77455,0,.91908-.74417,1.66275-1.6622,1.66275-.91855,0-1.66223-.74367-1.66223-1.66275.00003-9.78067.00003-14.67102.00003-24.45174v-11.42917c0-.91803.74368-1.6617,1.66223-1.6617.91803,0,1.6622.74367,1.6622,1.6617v2.73624c2.39856-2.69212,5.87952-4.40004,9.76065-4.40004,7.21506,0,13.08511,5.87057,13.08511,13.08563ZM441.50752,129.36757c0-5.38216-4.37903-9.76013-9.76065-9.76013-5.38004-.00002-9.75696,4.37482-9.76065,9.75381v.01366c.00369,5.379,4.38062,9.7538,9.76065,9.75381,5.38162,0,9.76065-4.37903,9.76065-9.76115Z" fill="#5e0072" stroke-width="0"/>
    <path d="M456.96907,104.90945c0,11.96033.00006,23.92064,0,35.88097,0,.91803-.7442,1.6617-1.66223,1.6617-.91852,0-1.66223-.74367-1.66223-1.6617v-35.88097c0-.91803.74371-1.66275,1.66223-1.66275.91754,0,1.66223.74472,1.66223,1.66275Z" fill="#5e0072" stroke-width="0"/>
    <path d="M491.34382,129.36757c0,.91803-.7442,1.66275-1.66174,1.66275-8.41772.00002-12.62659.00002-21.04431,0,.33667,1.97575,1.27307,3.79396,2.71893,5.24033,1.84393,1.84341,4.29498,2.85808,6.90204,2.85808,2.60754,0,5.05859-1.01466,6.90204-2.85808.64911-.64912,1.70264-.64912,2.35126,0,.64911.64914.64911,1.70056,0,2.3497-2.47156,2.47258-5.75714,3.83282-9.25226,3.83282-3.49567,0-6.78125-1.36024-9.25281-3.83282-2.46362-2.46313-3.82391-5.73611-3.83228-9.21918v-.06511c.00836-3.48306,1.36865-6.75604,3.83228-9.22023,2.47156-2.47153,5.75714-3.83282,9.25281-3.83282,3.49512,0,6.78204,1.36234,9.25226,3.83282,2.47101,2.47127,3.83282,5.75818,3.83179,9.25174ZM487.87965,127.70691c-.33667-1.97575-1.27252-3.79396-2.71887-5.24033-1.84344-1.84341-4.29449-2.85808-6.90204-2.85808-2.60809,0-5.05957,1.01572-6.90204,2.85808-1.44531,1.44521-2.38226,3.26562-2.71893,5.24033,7.69678.00002,11.5451.00002,19.24188,0Z" fill="#5e0072" stroke-width="0"/>
    <path d="M514.47621,103.24564c10.78888.15155,19.58844,8.9501,19.5885,19.58856.00006,10.63855-8.7995,19.43707-19.5885,19.5885-5.06238-.00082-7.59363-.00125-12.65601-.00209-.91858,0-1.66223-.74472-1.66223-1.6617v-35.85049c0-.9191.74365-1.66277,1.66223-1.66277,5.06238,0,7.59363,0,12.65601-.00002ZM514.47517,106.5701c-4.39734,0-6.59595.00002-10.99329.00002v32.5271c4.39771.00043,6.59662.00063,10.99432.00105,8.96759,0,16.26355-7.29593,16.26355-16.26407,0-8.96709-7.29596-16.2641-16.26459-16.2641Z" fill="#5e0072" stroke-width="0"/>
    <path d="M565.68526,117.94783c.00006,9.13788.00006,13.70683,0,22.84468,0,.91908-.74371,1.66275-1.66223,1.66275-.91858,0-1.66223-.74367-1.66223-1.66275v-1.70686c-2.06818,2.07974-4.92889,3.36961-8.08582,3.36961-6.2912,0-11.41022-5.11848-11.41022-11.41026v-13.10033c0-.91803.74371-1.6617,1.66223-1.6617.91803,0,1.66223.74367,1.66223,1.6617v13.10033c0,4.45888,3.6275,8.08582,8.08582,8.08582s8.08582-3.62694,8.08582-8.08582c0-5.23886,0-7.85829-.00006-13.09717,0-.91803.74365-1.66275,1.66223-1.66275.91852,0,1.66223.74472,1.66223,1.66275Z" fill="#5e0072" stroke-width="0"/>
    <path d="M596.25917,136.27275c.64807.64914.64911,1.70161,0,2.35074-2.55084,2.55032-5.9021,3.82652-9.25226,3.82652-3.35126,0-6.70038-1.27516-9.25122-3.82654-5.10217-5.10167-5.10217-13.40282,0-18.50452,2.46948-2.4726,5.7561-3.83545,9.25122-3.83598,3.49615-.00053,6.78284,1.36234,9.25385,3.83705.64911.65018.64752,1.70161-.00159,2.35074-.64862.64914-1.7016.64914-2.35022-.00209-1.84344-1.84447-4.29395-2.86124-6.90149-2.86124-2.60602-.00002-5.05762,1.01677-6.89996,2.86124-3.80603,3.80762-3.80603,9.9996-.00055,13.80408,3.80554,3.80551,9.9975,3.80446,13.80304,0,.64862-.64914,1.70215-.64813,2.34918,0Z" fill="#5e0072" stroke-width="0"/>
    <path d="M627.92018,139.71274c.59607.6985.51312,1.74678-.18488,2.34338-.31299.2668-.69641.3981-1.07874.3981-.46899,0-.93585-.19748-1.26465-.58296-4.33936-5.08299-6.50897-7.62448-10.84833-12.70747-2.28857,1.72641-3.4328,2.5896-5.72137,4.31601v7.31273c0,.91908-.7442,1.66275-1.66223,1.66275-.91858,0-1.66223-.74367-1.66223-1.66275v-35.88307c0-.91803.74365-1.66275,1.66223-1.66275.91803,0,1.66223.74472,1.66223,1.66275v24.40768c6.73352-5.08005,10.10034-7.62007,16.83386-12.70012.73053-.55354,1.77356-.40755,2.32764.32562.552.73212.40649,1.77515-.32611,2.32764-4.18201,3.15491-6.27295,4.73238-10.45496,7.88728,4.28699,5.02208,6.43054,7.53313,10.71753,12.55518Z" fill="#5e0072" stroke-width="0"/>
    <path d="M636.69716,140.56039c0,1.02411-.83398,1.85811-1.85858,1.85811-1.02466,0-1.8587-.834-1.85864-1.85811,0-1.02518.83398-1.85918,1.85864-1.85918,1.0246,0,1.85858.834,1.85858,1.85918Z" fill="#5e0072" stroke="#5e0072" stroke-miterlimit="10"/>
    <path d="M644.70576,114.16753c.35962,2.3114,2.25989,4.31392,5.08173,5.35484,3.72296,1.41255,5.58441,2.11882,9.30737,3.53137,3.95575,1.46107,6.65259,4.4368,7.2019,7.95662.50208,3.22046-.85602,6.35268-3.72565,8.59419-2.44269,1.90643-5.57855,2.86122-8.71289,2.86122-3.13593,0-6.27026-.95374-8.71344-2.86122-.00049-.00211-.00159-.00316-.00262-.00421-2.46417-1.92534-3.82129-4.52185-3.82129-7.31271,0-.91803.7442-1.6617,1.66278-1.6617.91803-.00002,1.66223.74365,1.66223,1.66168,0,1.74573.90381,3.41373,2.54456,4.69519.00049,0,.00049.00105.00153.00105,3.67474,2.87068,9.65613,2.87173,13.3335,0,1.91907-1.49889,2.80298-3.4379,2.48682-5.46092-.36029-2.31082-2.26044-4.3139-5.08124-5.35483-3.72314-1.41254-5.58478-2.11882-9.30792-3.53136-3.95569-1.46004-6.65259-4.4368-7.20135-7.95663-.50159-3.21835.85553-6.34955,3.72302-8.59108.00055-.00104.00214-.00209.00262-.00209,4.88483-3.81709,12.54047-3.81709,17.42578-.00002,2.4668,1.92535,3.8244,4.52399,3.8244,7.3159,0,.91803-.74365,1.6617-1.66168,1.6617-.91852,0-1.66223-.74367-1.66223-1.6617,0-1.74677-.90436-3.41374-2.54608-4.69624-3.67633-2.87173-9.65717-2.87173-13.33301.00002-.00104,0-.00208.00105-.00208.00105-1.91797,1.49783-2.80127,3.43846-2.48676,5.45987Z" fill="#5e0072" stroke-width="0"/>
    <path d="M700.51387,129.36859c0,7.21402-5.87054,13.08456-13.08557,13.08456s-13.08508-5.87054-13.08508-13.08455c0-7.21506,5.86951-13.08563,13.08508-13.08563,7.21503,0,13.08557,5.87057,13.08557,13.08562ZM697.18941,129.36859c0-5.38107-4.37897-9.76012-9.76111-9.76012s-9.76062,4.37904-9.76062,9.76013c0,5.38214,4.37848,9.76117,9.76062,9.76115,5.38214,0,9.76111-4.37901,9.76111-9.76117Z" fill="#5e0072" stroke-width="0"/>
    <path d="M729.69807,136.27274c.64807.64911.64911,1.70161,0,2.35074-2.55084,2.55032-5.9021,3.82654-9.25226,3.82654-3.35126,0-6.70038-1.27516-9.25122-3.82654-5.10217-5.10167-5.10217-13.40282,0-18.50452,2.46948-2.4726,5.7561-3.83545,9.25122-3.83598,3.49615-.00053,6.78284,1.36234,9.25385,3.83704.64911.65018.64752,1.70163-.00159,2.35075-.64862.64914-1.7016.64914-2.35022-.00209-1.84344-1.84448-4.29395-2.86125-6.90149-2.86125-2.60602,0-5.05762,1.01677-6.89996,2.86125-3.80603,3.80762-3.80603,9.99959-.00055,13.80406,3.80554,3.80551,9.9975,3.80446,13.80304,0,.64862-.64914,1.70215-.64806,2.34918,0Z" fill="#5e0072" stroke-width="0"/>
    <path d="M742.26057,110.59831v.00946c0,.91803-.7442,1.6617-1.66223,1.6617-.91852,0-1.66223-.74367-1.66223-1.6617.00006-.91803.74377-1.66698,1.66229-1.66698.91803,0,1.66217.73949,1.66217,1.65752ZM742.26057,117.94467c-.00006,9.13832-.00006,13.70746,0,22.84573,0,.91803-.7442,1.6617-1.66223,1.6617-.91852,0-1.66223-.74367-1.66223-1.6617-.00006-9.13828-.00006-13.70741,0-22.84573,0-.91803.74371-1.6617,1.66223-1.6617.91803,0,1.66223.74367,1.66223,1.6617Z" fill="#5e0072" stroke-width="0"/>
    <path d="M777.19612,129.36861c0,.00526-.00055.00946-.00055.01471v11.4071c0,.91803-.74469,1.6617-1.66223,1.6617-.91852,0-1.66223-.74367-1.66223-1.6617v-2.73624c-2.39801,2.69212-5.87939,4.40004-9.76001,4.40004-7.21509-.00002-13.08514-5.86951-13.08514-13.08562,0-7.21506,5.87006-13.08563,13.08563-13.08562,3.88062,0,7.36151,1.70792,9.76007,4.40109v-2.73834c0-.91803.74365-1.66275,1.66223-1.66275.91803,0,1.66223.74472,1.66223,1.66277v11.42285ZM773.87166,129.35497c-.00739-5.37479-4.38269-9.74648-9.76013-9.74648-5.38214,0-9.76062,4.37903-9.76062,9.76012,0,5.38214,4.37848,9.76117,9.76062,9.76117,5.37689,0,9.75171-4.37167,9.76013-9.74646v-.02835Z" fill="#5e0072" stroke-width="0"/>
    <path d="M789.33333,104.90948c-.00012,11.96031-.00018,23.92062-.00012,35.88094,0,.91803-.7442,1.6617-1.66223,1.6617-.91852,0-1.66223-.74367-1.66223-1.6617-.00006-11.96031,0-23.92062.00012-35.88094,0-.91803.74371-1.66277,1.66223-1.66277.91754.00002,1.66223.74474,1.66223,1.66277Z" fill="#5e0072" stroke-width="0"/>
  </g>
</svg>