<?xml version="1.0" encoding="UTF-8"?>
<svg id="b" data-name="Layer 2" xmlns="http://www.w3.org/2000/svg" width="363.99529" height="335.09292" viewBox="0 0 363.99529 335.09292">
  <g id="c" data-name="Layer 3">
    <path d="M62.39081,62.43199S87.11007.04528,144.1998,4.75371c57.08973,4.70843,92.99152,44.14154,54.73551,121.2421,0,0-10.45426,19.42228,9.19244,25.30782s92.03883-.58855,126.76351-28.25059c0,0,21.18794-20.01083,23.54216,15.89096s8.82831,137.13306-86.51742,175.97761-198.34266.58855-226.0047-61.2096c-27.66203-61.79816,38.256-102.40838,38.256-102.40838,0,0,16.47951-6.47409-5.29699-25.89637,0,0,5.29699-15.3024,1.17711-27.07348-4.11988-11.77108-1.76566-12.94819-17.65662-35.90179Z" fill="none" stroke="#5e0072" stroke-miterlimit="10" stroke-width="9"/>
    <path d="M78.87032,125.40726s-48.84997-2.35422-64.15237-17.65662c0,0-14.71385-9.41685-8.8283-25.30781,3.11677-5.46366,27.40588-.66048,56.50117-20.01085" fill="none" stroke="#5e0072" stroke-miterlimit="10" stroke-width="9"/>
    <circle cx="121.5837" cy="60.33618" r="16.18523" fill="none" stroke="#5e0072" stroke-miterlimit="10" stroke-width="6"/>
  </g>
</svg>