<?xml version="1.0" encoding="UTF-8"?>
<svg id="b" data-name="Layer 2" xmlns="http://www.w3.org/2000/svg" width="665.47601" height="417.92862" viewBox="0 0 665.47601 417.92862">
  <g id="c" data-name="Layer 3">
    <path d="M203.23936,62.43199S227.95863.04528,285.04835,4.75371c57.08973,4.70843,92.99152,44.14154,54.73551,121.2421,0,0-10.45426,19.42228,9.19244,25.30782s92.03883-.58855,126.76351-28.25059c0,0,21.18794-20.01083,23.54216,15.89096s8.82831,137.13306-86.51742,175.97761-198.34266.58855-226.0047-61.2096c-27.66203-61.79816,38.256-102.40838,38.256-102.40838,0,0,16.47951-6.47409-5.29699-25.89637,0,0,5.29699-15.3024,1.17711-27.07348-4.11988-11.77108-1.76566-12.94819-17.65662-35.90179Z" fill="none" stroke="#5e0072" stroke-miterlimit="10" stroke-width="9"/>
    <path d="M219.71887,125.40726s-48.84997-2.35422-64.15237-17.65662c0,0-14.71385-9.41685-8.8283-25.30781,3.11677-5.46366,27.40588-.66048,56.50117-20.01085" fill="none" stroke="#5e0072" stroke-miterlimit="10" stroke-width="9"/>
    <circle cx="262.43225" cy="60.33618" r="16.18523" fill="none" stroke="#5e0072" stroke-miterlimit="10" stroke-width="6"/>
    <g>
      <path d="M51.02012,362.73237c.00005,10.64706-9.1987,19.09811-19.8851,19.20932-9.37296,0-14.05945.00003-23.43239.00003v12.92639c0,1.25571-1.05421,2.27292-2.35469,2.27292-1.30122,0-2.35469-1.01721-2.35469-2.27292v-49.07358c0-1.25571,1.05347-2.27295,2.35469-2.27295,10.31483,0,15.47224,0,25.78708-.00003,10.68683.11142,19.88506,8.56369,19.8851,19.21082ZM46.31147,362.73094c-.00002-8.08459-6.80817-14.66205-15.17645-14.66202H7.70263v29.3255h23.43239c8.36829-.00003,15.17645-6.57889,15.17645-14.66348Z" fill="#5e0072" stroke="#5e0072" stroke-miterlimit="10" stroke-width="3"/>
      <path d="M93.99615,363.63462v31.24783c0,1.25714-1.05348,2.27435-2.35471,2.27435s-2.35471-1.01721-2.35471-2.27435v-2.33469c-2.92978,2.84473-6.98225,4.60904-11.45433,4.60907-8.91214,0-16.1637-7.00125-16.1637-15.60739v-17.9191c0-1.25577,1.05347-2.27295,2.35469-2.27295,1.30048,0,2.35471,1.01718,2.35471,2.27295v17.9191c0,6.099,5.13867,11.06009,11.45432,11.06009s11.45432-4.96109,11.45432-11.06009v-17.91483c0-1.25574,1.0535-2.27435,2.35471-2.27435s2.35471,1.01862,2.35471,2.27435Z" fill="#5e0072" stroke="#5e0072" stroke-miterlimit="10" stroke-width="3"/>
      <path d="M124.98589,363.63032c0,1.25574-1.05344,2.27435-2.35468,2.27435-6.31566,0-11.45433,4.96112-11.45433,11.06012v17.91476c0,1.25577-1.05421,2.27295-2.35471,2.27295-1.30122,0-2.35469-1.01718-2.35469-2.27295v-31.24924c0-1.25574,1.05347-2.27295,2.35469-2.27295,1.30049,0,2.35471,1.01721,2.35471,2.27295v2.33615c2.92905-2.84476,6.98151-4.6091,11.45433-4.6091,1.30124,0,2.35468,1.01721,2.35468,2.27295Z" fill="#5e0072" stroke="#5e0072" stroke-miterlimit="10" stroke-width="3"/>
      <path d="M174.46364,379.25639c-.00012,9.92252-8.62967,17.84613-18.53629,17.89755-5.46945.02838-10.42914-2.33615-13.8269-6.01852v21.57703c0,1.25717-1.05423,2.27438-2.35471,2.27438-1.30124,0-2.35471-1.01721-2.35471-2.27438.00003-11.14865.00003-22.29733.00003-33.44598v-15.63327c0-1.25574,1.05344-2.27292,2.35468-2.27292,1.30048,0,2.35471,1.01718,2.35471,2.27292v3.74274c3.39777-3.68237,8.35742-6.04688,13.8269-6.01852,9.90726.05136,18.53641,7.9761,18.53629,17.89899ZM169.75426,379.25498c0-7.36191-6.20334-13.35028-13.8269-13.35028-7.62137,0-13.82172,5.98407-13.8269,13.34164v.01868c.00519,7.35757,6.20554,13.34164,13.8269,13.34164,7.62357,0,13.8269-5.98981,13.8269-13.35168Z" fill="#5e0072" stroke="#5e0072" stroke-miterlimit="10" stroke-width="3"/>
      <path d="M191.657,345.80027c.00003,16.35977.00003,32.71954.00003,49.07932,0,1.25574-1.05423,2.27292-2.35471,2.27292-1.30124,0-2.35468-1.01718-2.35468-2.27292,0-16.35977,0-32.71954-.00003-49.07932,0-1.25574,1.05347-2.27438,2.35471-2.27438,1.29971,0,2.35468,1.01865,2.35468,2.27438Z" fill="#5e0072" stroke="#5e0072" stroke-miterlimit="10" stroke-width="3"/>
      <path d="M240.35207,379.25501c0,1.25571-1.05423,2.27435-2.35397,2.27435h-29.81128c.4769,2.70251,1.80344,5.18951,3.85159,7.16791,2.61212,2.52151,6.08429,3.90939,9.7774,3.90939,3.69385,0,7.16599-1.38788,9.77737-3.90936.91956-.88794,2.41199-.88794,3.33078-.00003.91959.88791.91959,2.32611,0,3.21399-3.50116,3.38211-8.15549,5.24271-13.10666,5.24271-4.95197,0-9.60632-1.86169-13.10748-5.24271-3.48889-3.36917-5.41693-7.84604-5.4288-12.61029v-.08908c.01187-4.76425,1.93878-9.24115,5.4288-12.61176,3.50119-3.38068,8.15552-5.24271,13.10748-5.24271,4.95117,0,9.6073,1.86343,13.10666,5.24271,3.5004,3.38028,5.42957,7.87625,5.4281,12.65488ZM235.44475,376.9835c-.47687-2.70251-1.80264-5.18954-3.85156-7.16794-2.61139-2.52148-6.08353-3.90939-9.77737-3.90939-3.69461,0-7.16727,1.38931-9.7774,3.90939-2.04742,1.97681-3.37469,4.46686-3.85159,7.16794h27.25793Z" fill="#5e0072" stroke="#5e0072" stroke-miterlimit="10" stroke-width="3"/>
      <path d="M273.12136,343.52442c13.98138.56818,27.7489,12.19275,27.74896,26.79395.00006,14.60153-13.76736,26.22583-27.74896,26.79391-7.17136-.00113-10.75705-.00171-17.92844-.00287-1.30118,0-2.35468-1.01865-2.35468-2.27292,0-16.34589,0-32.69177-.00003-49.03766,0-1.25717,1.0535-2.27438,2.35471-2.27438,7.17136-.00003,10.75705-.00003,17.92844-.00003ZM273.11986,348.07176c-6.22919.00003-9.34378.00003-15.57297.00003v44.49176c6.22977.00058,9.3447.00085,15.57446.00143,12.37759-.12827,23.039-9.91306,23.03882-22.24661-.00018-12.33386-10.66263-22.11835-23.04031-22.24661Z" fill="#5e0072" stroke="#5e0072" stroke-miterlimit="10" stroke-width="3"/>
      <path d="M345.66387,363.63462c.00003,10.41592.00003,20.83188,0,31.24783,0,1.25714-1.05347,2.27435-2.35468,2.27435s-2.35474-1.01721-2.35474-2.27435v-2.33472c-2.92978,2.84476-6.98224,4.60907-11.45428,4.60907-8.91214,0-16.16373-7.00125-16.16373-15.60736v-17.91913c0-1.25574,1.05347-2.27295,2.35468-2.27295,1.30048,0,2.35474,1.01721,2.35474,2.27295v17.91913c0,6.099,5.13864,11.06009,11.45432,11.06009s11.45428-4.96109,11.45428-11.06009v-17.91483c0-1.25574,1.0535-2.27435,2.35474-2.27435s2.35468,1.01862,2.35468,2.27435Z" fill="#5e0072" stroke="#5e0072" stroke-miterlimit="10" stroke-width="3"/>
      <path d="M388.97469,388.70014c.91815.88794.91962,2.32755,0,3.21542-3.61353,3.48843-8.36084,5.23407-13.10669,5.23407-4.74734,0-9.4917-1.7442-13.10522-5.23407-6.90808-6.17941-6.90808-19.13174,0-25.31116,3.4982-3.38211,8.15399-5.24628,13.10522-5.24701,4.9527-.00073,9.60852,1.86346,13.10895,5.24844.91956.88934.91736,2.32751-.00226,3.21542-.91882.88794-2.41046.88794-3.32928-.00287-2.61139-2.52292-6.08282-3.9137-9.77664-3.9137-3.69165,0-7.16455,1.39078-9.77444,3.9137-5.39163,5.20819-5.39163,13.67783-.00073,18.88174,5.39087,5.20532,14.16241,5.20389,19.55328,0,.91882-.88791,2.41125-.88641,3.32782,0Z" fill="#5e0072" stroke="#5e0072" stroke-miterlimit="10" stroke-width="3"/>
      <path d="M433.82558,393.4055c.84448.95544.72687,2.38931-.26184,3.20538-.44336.36493-.98651.54453-1.52814.54453-.66437,0-1.32581-.27011-1.7915-.79739-6.14709-6.9527-9.22058-10.42905-15.36768-17.38174-3.242,2.36145-4.86298,3.54214-8.10492,5.90359v10.00259c0,1.25714-1.05426,2.27438-2.35468,2.27438-1.30127,0-2.35474-1.01724-2.35474-2.27438v-49.08218c0-1.25574,1.05347-2.27441,2.35474-2.27441,1.30042.00003,2.35468,1.01868,2.35468,2.27441v33.38574c7.94891-5.79056,15.89789-11.58115,23.8468-17.3717,1.03485-.75717,2.51355-.55734,3.29736.44537.78204,1.00043.57581,2.42813-.46204,3.18384-5.92419,4.31543-8.88629,6.47314-14.81049,10.78854,6.073,6.86938,9.1095,10.30408,15.18243,17.17343Z" fill="#5e0072" stroke="#5e0072" stroke-miterlimit="10" stroke-width="3"/>
      <path d="M446.25905,394.56495c0,1.40082-1.18146,2.5416-2.633,2.5416-1.45148.00003-2.63287-1.14078-2.63287-2.5416,0-1.40228,1.1814-2.54303,2.63287-2.54303s2.633,1.14075,2.633,2.54303Z" fill="#5e0072" stroke="#5e0072" stroke-miterlimit="10" stroke-width="3"/>
      <path d="M457.60396,358.46382c.50946,3.16159,3.20142,5.9007,7.19879,7.32452,5.27386,1.93213,7.91089,2.89822,13.18475,4.83035,5.60364,1.9985,9.42401,6.06882,10.20221,10.88336.71124,4.40506-1.21289,8.69086-5.27777,11.75546-3.45905,2.60785-7.90259,3.9137-12.34265,3.9137-4.44226,0-8.88232-1.30457-12.34332-3.9137-.00073-.00287-.00226-.0043-.00372-.00574-3.49078-2.63358-5.41321-6.18518-5.41321-10.00262,0-1.25574,1.05426-2.27292,2.35541-2.27292,1.30054,0,2.35468,1.01718,2.35468,2.27289,0,2.38788,1.2804,4.66946,3.60461,6.42227.00079,0,.00079.00143.00226.00143,5.20557,3.92664,13.67883,3.92807,18.88812,0,2.71851-2.05023,3.97003-4.70294,3.52271-7.46964-.51086-3.16006-3.20203-5.90073-7.19794-7.32452-5.27423-1.93216-7.91132-2.89822-13.18555-4.83035-5.6037-1.99707-9.42395-6.06885-10.20148-10.88339-.71051-4.40219,1.21198-8.68515,5.27411-11.75119.00073-.0014.00299-.00284.00372-.00284,6.91974-5.22119,17.76477-5.22119,24.68524-.00003,3.49451,2.63354,5.41766,6.18808,5.41766,10.00696,0,1.25571-1.05347,2.27295-2.354,2.27295-1.30121,0-2.35468-1.01724-2.35468-2.27295,0-2.38931-1.28113-4.66943-3.60681-6.42371-5.20782-3.92807-13.6803-3.92807-18.88739,0-.00146,0-.00299.00143-.00299.00143-2.71704,2.04883-3.96826,4.70334-3.52277,7.46826Z" fill="#5e0072" stroke="#5e0072" stroke-miterlimit="10" stroke-width="3"/>
      <path d="M536.66146,379.25639c-.00012,9.92255-8.68188,17.89752-18.53693,17.89755s-18.53613-7.97501-18.53632-17.89755c-.00018-9.9231,8.68036-17.89911,18.53632-17.89899,9.85583.00012,18.53705,7.97604,18.53693,17.89899ZM531.95205,379.25639c0-7.36044-6.20325-13.35025-13.82751-13.35025s-13.8269,5.98981-13.8269,13.35025c0,7.36191,6.20258,13.35172,13.8269,13.35172s13.82751-5.98981,13.82751-13.35172Z" fill="#5e0072" stroke="#5e0072" stroke-miterlimit="10" stroke-width="3"/>
      <path d="M578.00368,388.70014c.91809.88791.91962,2.32755,0,3.21542-3.61353,3.48843-8.36078,5.23407-13.10663,5.23407-4.74738,0-9.49176-1.7442-13.10529-5.23407-6.90808-6.17941-6.90808-19.13174,0-25.31116,3.49823-3.38211,8.15405-5.24634,13.10529-5.24704,4.95264-.0007,9.60846,1.86349,13.10889,5.24847.91956.88931.91736,2.32751-.00226,3.21542-.91882.88794-2.41046.88794-3.32928-.00287-2.61139-2.52295-6.08276-3.91373-9.77661-3.91373-3.69165,0-7.16455,1.39078-9.77441,3.91373-5.39166,5.20819-5.39166,13.67783-.00079,18.88174,5.39093,5.20532,14.16241,5.20389,19.55328,0,.91882-.88791,2.41125-.88638,3.32782,0Z" fill="#5e0072" stroke="#5e0072" stroke-miterlimit="10" stroke-width="3"/>
      <path d="M595.7997,353.58167v.01294c0,1.25571-1.0542,2.27295-2.35468,2.27295-1.30121,0-2.35468-1.01724-2.35468-2.27295s1.05353-2.28012,2.35468-2.28012c1.30054,0,2.35468,1.01147,2.35468,2.26718ZM595.7997,363.63035c-.00006,10.41641-.00006,20.83282,0,31.24924,0,1.25574-1.0542,2.27292-2.35468,2.27292-1.30121,0-2.35474-1.01718-2.35474-2.27295v-31.24921c0-1.25577,1.05353-2.27295,2.35474-2.27295,1.30048,0,2.35468,1.01718,2.35468,2.27295Z" fill="#5e0072" stroke="#5e0072" stroke-miterlimit="10" stroke-width="3"/>
      <path d="M645.28921,379.25642c0,.00717-.00079.01294-.00079.02011,0,6.24124.00006,9.36182.00006,15.60306,0,1.25574-1.05493,2.27295-2.35468,2.27295-1.30121,0-2.35468-1.01721-2.35468-2.27295-.00006-1.49707-.00006-2.24564-.00006-3.74271-3.39697,3.68237-8.3573,6.04681-13.82605,6.01852-9.90765-.05127-18.5365-7.97546-18.53632-17.89902s8.62952-17.84769,18.53705-17.89899c5.46869-.02832,10.42834,2.33618,13.82605,6.01999v-3.74561c.00006-1.25574,1.05353-2.27438,2.35474-2.27438,1.30048,0,2.35474,1.01865,2.35474,2.27441,0,6.24237-.00006,9.36356-.00006,15.60593v.01868ZM640.57979,379.23774c-.01038-7.35184-6.2085-13.3316-13.82611-13.3316-7.62427,0-13.82684,5.98984-13.82684,13.35025,0,7.36191,6.20258,13.35172,13.82684,13.35172,7.61688,0,13.81421-5.97974,13.82611-13.33157v-.03879Z" fill="#5e0072" stroke="#5e0072" stroke-miterlimit="10" stroke-width="3"/>
      <path d="M662.48275,345.8003c-.00018,16.35977-.00018,32.71951-.00012,49.07928,0,1.25574-1.05426,2.27295-2.35468,2.27295-1.30127,0-2.35468-1.01721-2.35474-2.27295-.00006-16.35977,0-32.71954.00018-49.07928,0-1.25574,1.05347-2.27438,2.35468-2.27438,1.29974,0,2.35468,1.01865,2.35468,2.27438Z" fill="#5e0072" stroke="#5e0072" stroke-miterlimit="10" stroke-width="3"/>
    </g>
  </g>
</svg>